<?xml version="1.0" encoding="UTF-8" standalone="no"?>
<!-- Created with Inkscape (http://www.inkscape.org/) -->

<svg
   xmlns:dc="http://purl.org/dc/elements/1.1/"
   xmlns:cc="http://creativecommons.org/ns#"
   xmlns:rdf="http://www.w3.org/1999/02/22-rdf-syntax-ns#"
   xmlns:svg="http://www.w3.org/2000/svg"
   xmlns="http://www.w3.org/2000/svg"
   xmlns:sodipodi="http://sodipodi.sourceforge.net/DTD/sodipodi-0.dtd"
   xmlns:inkscape="http://www.inkscape.org/namespaces/inkscape"
   width="437.07462"
   height="257.30283"
   id="svg3103"
   version="1.1"
   inkscape:version="0.48.4 r9939"
   sodipodi:docname="ichtys_darwin_2.svg">
  <defs
     id="defs3105" />
  <sodipodi:namedview
     id="base"
     pagecolor="#ffffff"
     bordercolor="#666666"
     borderopacity="1.0"
     inkscape:pageopacity="0.0"
     inkscape:pageshadow="2"
     inkscape:zoom="0.35"
     inkscape:cx="296.39448"
     inkscape:cy="120.07996"
     inkscape:document-units="px"
     inkscape:current-layer="layer1"
     showgrid="false"
     fit-margin-top="0"
     fit-margin-left="0"
     fit-margin-right="0"
     fit-margin-bottom="0"
     inkscape:window-width="515"
     inkscape:window-height="455"
     inkscape:window-x="763"
     inkscape:window-y="26"
     inkscape:window-maximized="0" />
  <metadata
     id="metadata3108">
    <rdf:RDF>
      <cc:Work
         rdf:about="">
        <dc:format>image/svg+xml</dc:format>
        <dc:type
           rdf:resource="http://purl.org/dc/dcmitype/StillImage" />
        <dc:title></dc:title>
      </cc:Work>
    </rdf:RDF>
  </metadata>
  <g
     inkscape:label="Layer 1"
     inkscape:groupmode="layer"
     id="layer1"
     transform="translate(-78.605516,-395.13931)">
    <g
       transform="translate(-64.983719,-140.31419)"
       id="g3524">
      <g
         style="fill:#000000"
         id="g3514"
         transform="translate(422.85714,0)">
        <g
           inkscape:label="Ebene 1"
           id="g3516"
           transform="matrix(1.6483115,0,0,1.6483115,-236.87774,247.25069)"
           style="fill:#000000;stroke:none">
          <path
             style="fill:#000000;fill-opacity:1;fill-rule:evenodd;stroke:none"
             d="M 372.09375 61.90625 C 370.74321 65.319392 369.32885 68.733867 367.78125 72.0625 C 365.83669 76.059111 363.75349 79.963347 361.53125 83.8125 C 358.38975 89.253148 354.98148 94.556424 351.3125 99.65625 C 347.64492 104.75449 343.72058 109.66823 339.5625 114.375 C 338.81273 115.1579 338.04443 115.91766 337.28125 116.6875 C 326.26237 106.44563 314.17057 97.444592 301.1875 89.84375 C 271.3464 72.614345 237.66677 63.156895 203.21875 62.34375 C 198.36638 62.229522 193.50455 62.27072 188.65625 62.5 C 140.49236 64.838311 94.699983 84.040529 59.25 116.71875 L 59.1875 116.71875 L 47.40625 128.46875 L 47.40625 129.0625 L 47.1875 128.8125 L 47.1875 129.34375 L 59.40625 140.84375 C 70.425476 151.09614 82.544728 160.10916 95.53125 167.71875 C 173.38448 212.55276 271.3138 201.64863 337.40625 140.84375 C 341.37321 145.16421 345.14053 149.67214 348.6875 154.34375 C 352.4753 159.35556 356.01271 164.54133 359.28125 169.90625 C 362.54992 175.27108 365.53324 180.80441 368.25 186.46875 C 369.63435 189.51211 370.90454 192.60611 372.125 195.71875 L 372.5 195.5 L 372.5625 195.65625 L 386.59375 187.5625 L 386.5625 187.46875 L 387 187.21875 C 377.89044 165.74135 365.25474 145.94837 349.5 128.71875 C 359.79626 117.65502 368.83773 105.48403 376.46875 92.4375 C 380.45799 85.36476 383.97272 78.055526 387.09375 70.5625 L 386.375 70.15625 C 386.36346 70.184436 386.35545 70.190564 386.34375 70.21875 L 372.78125 62.4375 C 372.79444 62.404863 372.79948 62.376387 372.8125 62.34375 L 372.09375 61.90625 z M 198.875 79.53125 C 202.01491 79.539492 205.17598 79.615512 208.3125 79.78125 C 214.58611 80.112758 220.82208 80.762564 227.03125 81.71875 C 233.24018 82.675117 239.41753 83.959799 245.5 85.53125 C 251.58242 87.102503 257.57355 88.954372 263.46875 91.125 C 269.36435 93.295694 275.13183 95.782806 280.78125 98.53125 C 284.78022 100.47675 288.71115 102.55774 292.5625 104.78125 C 298.00283 107.92249 303.27544 111.33134 308.375 115 C 313.47354 118.66754 318.38672 122.5919 323.09375 126.75 C 323.09512 126.7512 323.12335 126.74835 323.125 126.75 C 323.84256 127.43815 324.54342 128.11307 325.25 128.8125 C 320.99432 132.71361 316.56459 136.44333 311.96875 139.9375 C 306.95717 143.72499 301.77086 147.26298 296.40625 150.53125 C 291.04114 153.79995 285.50837 156.78327 279.84375 159.5 C 274.17939 162.21655 268.37602 164.64375 262.46875 166.78125 C 256.56168 168.91898 250.55971 170.77515 244.46875 172.3125 C 238.37723 173.84976 232.21456 175.07856 226 176 C 219.7854 176.92126 213.52553 177.51627 207.25 177.8125 C 200.97519 178.10888 194.67931 178.11292 188.40625 177.78125 C 182.13265 177.44977 175.89666 176.79992 169.6875 175.84375 C 163.47859 174.88766 157.3012 173.63365 151.21875 172.0625 C 145.13628 170.49097 139.14519 168.60841 133.25 166.4375 C 127.35469 164.26677 121.58664 161.81093 115.9375 159.0625 C 111.93823 157.11701 108.00788 155.00481 104.15625 152.78125 C 98.715934 149.64031 93.412086 146.23088 88.3125 142.5625 C 83.213963 138.89496 78.30078 134.97061 73.59375 130.8125 C 72.876456 130.12436 72.17506 129.4494 71.46875 128.75 C 75.723856 124.84919 80.154781 121.11898 84.75 117.625 C 89.761546 113.83723 94.947861 110.2998 100.3125 107.03125 C 105.67732 103.76258 111.21066 100.77926 116.875 98.0625 C 122.53965 95.345934 128.34244 92.918714 134.25 90.78125 C 140.15707 88.643538 146.15903 86.787347 152.25 85.25 C 158.34153 83.712999 164.5042 82.483659 170.71875 81.5625 C 176.93277 80.641011 183.19378 80.046548 189.46875 79.75 C 192.60616 79.601817 195.73508 79.522481 198.875 79.53125 z "
             transform="matrix(0.60668144,0,0,0.60668144,-25.717326,174.8473)"
             id="path3256" />
        </g>
        <path
           style="fill:#000000;stroke:none"
           d="m 14.339789,702.8576 c -7.5534539,4.40619 -8.6505877,4.20405 -0.813818,15.21491 5.310797,8.41592 12.312767,29.61144 -0.196079,30.00451 -5.9722022,0.0466 -16.1946304,-0.0354 -22.2487585,0.0298 -11.7017065,0.12597 -16.9006995,-11.17344 -4.9587915,-15.96377 11.8977226,-4.7726 4.037454,-13.9178 -0.292361,-14.14035 -5.657622,-0.29079 -9.327269,0.59127 -9.327269,0.59127 l -2.931277,-7.55345 37.767266,-15.10691"
           id="path3520"
           inkscape:connector-curvature="0"
           sodipodi:nodetypes="cccsssccc" />
        <path
           style="fill:#000000;stroke:none"
           d="m -137.12821,722.29484 c -7.57614,-2.27285 -11.36421,-2.0203 -12.6269,5.80838 -1.26269,7.82868 0.83458,19.91932 -7.46071,20.01364 -7.53022,0.0856 -16.08847,-0.12623 -25.43239,-0.0631 -9.37166,0.0633 -14.58407,-13.8896 -1.19955,-19.44543 13.38452,-5.55584 19.19289,-11.36422 14.14213,-18.18275 -5.05076,-6.81853 -5.05076,-6.81853 -5.05076,-6.81853"
           id="path3522"
           inkscape:connector-curvature="0"
           sodipodi:nodetypes="csssssc" />
      </g>
    </g>
  </g>
</svg>
